<svg data-logo="logo" xmlns="http://www.w3.org/2000/svg" viewBox="0 0 234 42">
            <g id="logogram" transform="translate(0, 1) rotate(0)" style="opacity: 1;"><path d="M40 13.4683C40.0001 10.7823 39.1891 8.1589 37.673 5.9417C36.1569 3.72451 34.0065 2.01688 31.5035 1.04252C29.0005 0.0681476 26.2615 -0.127534 23.6455 0.48109C21.0293 1.08971 18.658 2.47428 16.8421 4.45341H0V40H35.5601V23.3873C36.9557 22.139 38.0726 20.6104 38.8377 18.9012C39.6027 17.192 39.9988 15.3409 40 13.4683ZM33.1579 13.4683C33.1606 14.7553 32.7814 16.0143 32.0683 17.0858C31.3551 18.1572 30.3402 18.9931 29.1518 19.4874C27.9634 19.9819 26.6552 20.1127 25.3924 19.8631C24.1298 19.6137 22.9695 18.9953 22.0584 18.0861C21.1474 17.1769 20.5266 16.0179 20.2745 14.7557C20.0224 13.4936 20.1505 12.185 20.6424 10.9957C21.1343 9.80626 21.968 8.78957 23.0379 8.07423C24.108 7.35888 25.3661 6.97705 26.6532 6.97703C28.376 6.97703 30.0285 7.6605 31.2479 8.87745C32.4675 10.0944 33.1544 11.7455 33.1579 13.4683ZM28.7179 33.1579H6.84211V11.2955H13.5088C13.38 12.0128 13.3123 12.7397 13.3063 13.4683C13.31 17.007 14.7173 20.3997 17.2196 22.902C19.7217 25.4042 23.1144 26.8116 26.6532 26.8151C27.3451 26.8115 28.0355 26.7528 28.7179 26.6397V33.1579Z" fill="#145485"></path></g>
            <g id="logotype" transform="translate(46, 8)" style="opacity: 1;"><path fill="#145485" d="M13.52 26L8.31 26L8.31 0.54L18.24 0.54Q21.14 0.54 23.18 1.56Q25.21 2.59 26.28 4.45Q27.35 6.31 27.35 8.82L27.35 8.82Q27.35 11.34 26.26 13.16Q25.17 14.98 23.12 15.94Q21.06 16.91 18.12 16.91L18.12 16.91L11.38 16.91L11.38 12.69L17.28 12.69Q18.89 12.69 19.91 12.25Q20.94 11.82 21.45 10.95Q21.96 10.09 21.96 8.82L21.96 8.82Q21.96 7.53 21.45 6.65Q20.94 5.77 19.90 5.30Q18.87 4.84 17.26 4.84L17.26 4.84L13.52 4.84L13.52 26ZM28.25 26L22.47 26L16.27 14.41L21.93 14.41L28.25 26ZM37.53 26.38L37.53 26.38Q34.61 26.38 32.49 25.18Q30.37 23.98 29.23 21.78Q28.10 19.57 28.10 16.55L28.10 16.55Q28.10 13.59 29.22 11.37Q30.35 9.15 32.42 7.90Q34.49 6.65 37.27 6.65L37.27 6.65Q39.15 6.65 40.78 7.25Q42.40 7.85 43.63 9.06Q44.86 10.26 45.55 12.07Q46.24 13.88 46.24 16.34L46.24 16.34L46.24 17.78L30.20 17.78L30.20 14.57L43.73 14.57L41.34 15.42Q41.34 13.93 40.89 12.83Q40.43 11.73 39.54 11.12Q38.64 10.52 37.31 10.52L37.31 10.52Q35.99 10.52 35.06 11.13Q34.13 11.75 33.65 12.80Q33.17 13.85 33.17 15.20L33.17 15.20L33.17 17.47Q33.17 19.13 33.73 20.26Q34.28 21.39 35.28 21.95Q36.28 22.51 37.61 22.51L37.61 22.51Q38.52 22.51 39.25 22.26Q39.99 22.00 40.51 21.50Q41.03 20.99 41.31 20.26L41.31 20.26L45.95 21.13Q45.49 22.70 44.35 23.89Q43.20 25.08 41.49 25.73Q39.77 26.38 37.53 26.38ZM52.80 26.38L52.80 26.38Q50.99 26.38 49.55 25.74Q48.11 25.09 47.28 23.82Q46.45 22.55 46.45 20.65L46.45 20.65Q46.45 19.06 47.04 17.98Q47.63 16.91 48.64 16.26Q49.66 15.61 50.95 15.27Q52.24 14.93 53.66 14.79L53.66 14.79Q55.32 14.62 56.33 14.47Q57.35 14.33 57.82 14.01Q58.29 13.70 58.29 13.08L58.29 13.08L58.29 12.99Q58.29 12.17 57.95 11.61Q57.61 11.05 56.94 10.75Q56.27 10.45 55.30 10.45L55.30 10.45Q54.31 10.45 53.57 10.75Q52.84 11.05 52.38 11.54Q51.92 12.04 51.69 12.65L51.69 12.65L46.99 11.87Q47.49 10.21 48.64 9.05Q49.78 7.88 51.48 7.27Q53.18 6.65 55.30 6.65L55.30 6.65Q56.86 6.65 58.31 7.02Q59.76 7.39 60.91 8.16Q62.07 8.93 62.74 10.16Q63.42 11.39 63.42 13.13L63.42 13.13L63.42 26L58.56 26L58.56 23.35L58.39 23.35Q57.93 24.24 57.16 24.91Q56.39 25.59 55.31 25.98Q54.22 26.38 52.80 26.38ZM54.26 22.77L54.26 22.77Q55.47 22.77 56.39 22.29Q57.30 21.81 57.81 20.99Q58.33 20.17 58.33 19.16L58.33 19.16L58.33 17.10Q58.10 17.27 57.64 17.40Q57.18 17.54 56.62 17.64Q56.05 17.75 55.51 17.83Q54.96 17.92 54.53 17.97L54.53 17.97Q53.59 18.10 52.87 18.41Q52.16 18.72 51.76 19.22Q51.37 19.73 51.37 20.51L51.37 20.51Q51.37 21.25 51.75 21.75Q52.12 22.26 52.76 22.51Q53.40 22.77 54.26 22.77ZM65.52 0.54L70.64 0.54L70.64 26L65.52 26L65.52 0.54ZM70.88 6.89L82.21 6.89L82.21 10.81L70.88 10.81L70.88 6.89ZM73.51 20.86L73.51 2.35L78.64 2.35L78.64 20.41Q78.64 21.32 79.04 21.75Q79.44 22.19 80.38 22.19L80.38 22.19Q80.67 22.19 81.20 22.11Q81.73 22.04 82.01 21.97L82.01 21.97L82.74 25.81Q81.89 26.07 81.04 26.17Q80.20 26.27 79.43 26.27L79.43 26.27Q76.56 26.27 75.03 24.87Q73.51 23.47 73.51 20.86L73.51 20.86ZM91.81 26.38L91.81 26.38Q88.94 26.38 86.84 25.14Q84.74 23.90 83.60 21.68Q82.47 19.47 82.47 16.53L82.47 16.53Q82.47 13.56 83.60 11.35Q84.74 9.13 86.84 7.89Q88.94 6.65 91.81 6.65L91.81 6.65Q94.70 6.65 96.80 7.89Q98.89 9.13 100.03 11.35Q101.16 13.56 101.16 16.53L101.16 16.53Q101.16 19.47 100.03 21.68Q98.89 23.90 96.80 25.14Q94.70 26.38 91.81 26.38ZM91.81 22.34L91.81 22.34Q93.18 22.34 94.10 21.58Q95.03 20.82 95.49 19.50Q95.95 18.17 95.95 16.52L95.95 16.52Q95.95 14.82 95.49 13.51Q95.03 12.19 94.10 11.44Q93.18 10.69 91.81 10.69L91.81 10.69Q90.45 10.69 89.53 11.44Q88.62 12.19 88.16 13.51Q87.70 14.82 87.70 16.52L87.70 16.52Q87.70 18.17 88.16 19.50Q88.62 20.82 89.53 21.58Q90.45 22.34 91.81 22.34ZM107.59 26L102.46 26L102.46 6.89L107.42 6.89L107.42 10.23L107.62 10.23Q108.15 8.45 109.39 7.54Q110.63 6.64 112.24 6.64L112.24 6.64Q112.63 6.64 113.08 6.68Q113.53 6.72 113.89 6.81L113.89 6.81L113.89 11.39Q113.55 11.27 112.90 11.20Q112.25 11.13 111.67 11.13L111.67 11.13Q110.51 11.13 109.57 11.64Q108.63 12.14 108.11 13.04Q107.59 13.93 107.59 15.13L107.59 15.13L107.59 26ZM125.31 26L114.56 26L114.56 0.54L124.66 0.54Q127.46 0.54 129.33 1.38Q131.20 2.23 132.13 3.70Q133.07 5.17 133.07 7.08L133.07 7.08Q133.07 8.59 132.47 9.70Q131.87 10.82 130.84 11.53Q129.80 12.24 128.49 12.55L128.49 12.55L128.49 12.81Q129.92 12.86 131.19 13.62Q132.47 14.38 133.26 15.74Q134.06 17.10 134.06 18.99L134.06 18.99Q134.06 20.99 133.07 22.58Q132.07 24.17 130.13 25.09Q128.20 26 125.31 26L125.31 26ZM119.77 14.81L119.77 21.71L124.28 21.71Q126.57 21.71 127.63 20.82Q128.69 19.93 128.69 18.50L128.69 18.50Q128.69 17.40 128.17 16.57Q127.65 15.75 126.69 15.28Q125.73 14.81 124.42 14.81L124.42 14.81L119.77 14.81ZM119.77 4.79L119.77 11.23L123.89 11.23Q125.00 11.23 125.89 10.83Q126.78 10.43 127.28 9.69Q127.78 8.94 127.78 7.92L127.78 7.92Q127.78 6.53 126.80 5.66Q125.82 4.79 123.99 4.79L123.99 4.79L119.77 4.79ZM135.32 0.54L140.45 0.54L140.45 26L135.32 26L135.32 0.54ZM151.07 26.38L151.07 26.38Q148.20 26.38 146.10 25.14Q144.00 23.90 142.86 21.68Q141.73 19.47 141.73 16.53L141.73 16.53Q141.73 13.56 142.86 11.35Q144.00 9.13 146.10 7.89Q148.20 6.65 151.07 6.65L151.07 6.65Q153.96 6.65 156.06 7.89Q158.15 9.13 159.29 11.35Q160.42 13.56 160.42 16.53L160.42 16.53Q160.42 19.47 159.29 21.68Q158.15 23.90 156.06 25.14Q153.96 26.38 151.07 26.38ZM151.07 22.34L151.07 22.34Q152.44 22.34 153.36 21.58Q154.29 20.82 154.75 19.50Q155.21 18.17 155.21 16.52L155.21 16.52Q155.21 14.82 154.75 13.51Q154.29 12.19 153.36 11.44Q152.44 10.69 151.07 10.69L151.07 10.69Q149.71 10.69 148.79 11.44Q147.88 12.19 147.42 13.51Q146.96 14.82 146.96 16.52L146.96 16.52Q146.96 18.17 147.42 19.50Q147.88 20.82 148.79 21.58Q149.71 22.34 151.07 22.34ZM170.26 26.38L170.26 26.38Q167.38 26.38 165.28 25.14Q163.19 23.90 162.05 21.68Q160.92 19.47 160.92 16.53L160.92 16.53Q160.92 13.56 162.05 11.35Q163.19 9.13 165.28 7.89Q167.38 6.65 170.26 6.65L170.26 6.65Q171.96 6.65 173.39 7.10Q174.83 7.54 175.94 8.36Q177.05 9.18 177.77 10.36Q178.48 11.54 178.76 13.01L178.76 13.01L173.99 13.90Q173.84 13.15 173.51 12.56Q173.19 11.97 172.73 11.55Q172.26 11.13 171.66 10.91Q171.05 10.69 170.32 10.69L170.32 10.69Q168.95 10.69 168.02 11.42Q167.09 12.16 166.62 13.47Q166.15 14.79 166.15 16.52L166.15 16.52Q166.15 18.22 166.62 19.53Q167.09 20.84 168.02 21.59Q168.95 22.34 170.32 22.34L170.32 22.34Q171.05 22.34 171.67 22.11Q172.28 21.88 172.76 21.45Q173.24 21.01 173.56 20.39Q173.89 19.78 174.02 19.01L174.02 19.01L178.79 19.88Q178.52 21.40 177.80 22.59Q177.08 23.78 175.97 24.63Q174.86 25.49 173.42 25.93Q171.97 26.38 170.26 26.38ZM186.14 17.93L181.37 17.93L180.99 0.54L186.51 0.54L186.14 17.93ZM183.76 26.32L183.76 26.32Q182.43 26.32 181.58 25.52Q180.74 24.72 180.74 23.44L180.74 23.44Q180.74 22.14 181.58 21.33Q182.43 20.53 183.76 20.53L183.76 20.53Q185.11 20.53 185.95 21.33Q186.79 22.14 186.79 23.44L186.79 23.44Q186.79 24.72 185.95 25.52Q185.11 26.32 183.76 26.32Z"></path></g>
            
          </svg>